<svg width="41" height="27" viewBox="0 0 41 27" fill="none" xmlns="http://www.w3.org/2000/svg">
<path d="M6.8111 26.6667C4.95774 26.6667 3.37466 26.0694 2.06187 24.875C0.749067 23.6806 0.0617787 22.2361 0 20.5417C0 20.2917 0.0154447 20.0417 0.046334 19.7917C0.0772234 19.5417 0.123557 19.2917 0.185336 19.0417L4.0774 5.04167C4.50985 3.54167 5.39019 2.32639 6.71844 1.39583C8.04668 0.465278 9.56026 0 11.2592 0H29.3295C31.0284 0 32.5419 0.465278 33.8702 1.39583C35.1984 2.32639 36.0788 3.54167 36.5112 5.04167L40.4033 19.0417C40.4651 19.2917 40.5191 19.5486 40.5655 19.8125C40.6118 20.0764 40.635 20.3333 40.635 20.5833C40.635 22.2778 39.9631 23.7153 38.6194 24.8958C37.2757 26.0764 35.6618 26.6667 33.7775 26.6667C32.4802 26.6667 31.2755 26.3611 30.1635 25.75C29.0514 25.1389 28.2174 24.3056 27.6614 23.25L26.3641 20.8333C26.2096 20.5556 25.978 20.3472 25.6691 20.2083C25.3602 20.0694 25.0358 20 24.696 20H15.8926C15.5528 20 15.2285 20.0694 14.9196 20.2083C14.6107 20.3472 14.379 20.5556 14.2246 20.8333L12.9272 23.25C12.3712 24.3056 11.5372 25.1389 10.4252 25.75C9.31314 26.3611 8.10846 26.6667 6.8111 26.6667ZM6.95011 23.3333C7.537 23.3333 8.06985 23.1944 8.54863 22.9167C9.02742 22.6389 9.39037 22.2639 9.63748 21.7917L10.9348 19.4167C11.3982 18.5556 12.0777 17.8819 12.9735 17.3958C13.8693 16.9097 14.8423 16.6667 15.8926 16.6667H24.696C25.7463 16.6667 26.7193 16.9167 27.6151 17.4167C28.5109 17.9167 29.2059 18.5833 29.7001 19.4167L30.9975 21.7917C31.2446 22.2639 31.6075 22.6389 32.0863 22.9167C32.5651 23.1944 33.098 23.3333 33.6849 23.3333C34.5498 23.3333 35.2911 23.0764 35.9089 22.5625C36.5267 22.0486 36.851 21.4028 36.8819 20.625C36.8819 20.6528 36.851 20.3889 36.7892 19.8333L32.8972 5.875C32.6809 5.125 32.2485 4.51389 31.5998 4.04167C30.9511 3.56944 30.1944 3.33333 29.3295 3.33333H11.2592C10.3943 3.33333 9.62976 3.56944 8.96564 4.04167C8.30152 4.51389 7.87679 5.125 7.69145 5.875L3.79939 19.8333C3.73761 20 3.70672 20.25 3.70672 20.5833C3.70672 21.3611 4.02334 22.0139 4.65657 22.5417C5.2898 23.0694 6.05432 23.3333 6.95011 23.3333ZM23.0744 11.6667C23.5995 11.6667 24.0396 11.5069 24.3949 11.1875C24.7501 10.8681 24.9277 10.4722 24.9277 10C24.9277 9.52778 24.7501 9.13194 24.3949 8.8125C24.0396 8.49306 23.5995 8.33333 23.0744 8.33333C22.5492 8.33333 22.1091 8.49306 21.7538 8.8125C21.3986 9.13194 21.221 9.52778 21.221 10C21.221 10.4722 21.3986 10.8681 21.7538 11.1875C22.1091 11.5069 22.5492 11.6667 23.0744 11.6667ZM26.7811 8.33333C27.3062 8.33333 27.7464 8.17361 28.1016 7.85417C28.4568 7.53472 28.6344 7.13889 28.6344 6.66667C28.6344 6.19444 28.4568 5.79861 28.1016 5.47917C27.7464 5.15972 27.3062 5 26.7811 5C26.256 5 25.8158 5.15972 25.4606 5.47917C25.1053 5.79861 24.9277 6.19444 24.9277 6.66667C24.9277 7.13889 25.1053 7.53472 25.4606 7.85417C25.8158 8.17361 26.256 8.33333 26.7811 8.33333ZM26.7811 15C27.3062 15 27.7464 14.8403 28.1016 14.5208C28.4568 14.2014 28.6344 13.8056 28.6344 13.3333C28.6344 12.8611 28.4568 12.4653 28.1016 12.1458C27.7464 11.8264 27.3062 11.6667 26.7811 11.6667C26.256 11.6667 25.8158 11.8264 25.4606 12.1458C25.1053 12.4653 24.9277 12.8611 24.9277 13.3333C24.9277 13.8056 25.1053 14.2014 25.4606 14.5208C25.8158 14.8403 26.256 15 26.7811 15ZM30.4878 11.6667C31.0129 11.6667 31.4531 11.5069 31.8083 11.1875C32.1636 10.8681 32.3412 10.4722 32.3412 10C32.3412 9.52778 32.1636 9.13194 31.8083 8.8125C31.4531 8.49306 31.0129 8.33333 30.4878 8.33333C29.9627 8.33333 29.5225 8.49306 29.1673 8.8125C28.8121 9.13194 28.6344 9.52778 28.6344 10C28.6344 10.4722 28.8121 10.8681 29.1673 11.1875C29.5225 11.5069 29.9627 11.6667 30.4878 11.6667ZM13.8075 14.1667C14.2091 14.1667 14.5412 14.0486 14.8037 13.8125C15.0663 13.5764 15.1976 13.2778 15.1976 12.9167V11.25H17.0509C17.4525 11.25 17.7846 11.1319 18.0471 10.8958C18.3097 10.6597 18.441 10.3611 18.441 10C18.441 9.63889 18.3097 9.34028 18.0471 9.10417C17.7846 8.86806 17.4525 8.75 17.0509 8.75H15.1976V7.08333C15.1976 6.72222 15.0663 6.42361 14.8037 6.1875C14.5412 5.95139 14.2091 5.83333 13.8075 5.83333C13.406 5.83333 13.0739 5.95139 12.8114 6.1875C12.5488 6.42361 12.4175 6.72222 12.4175 7.08333V8.75H10.5642C10.1626 8.75 9.83054 8.86806 9.56798 9.10417C9.30542 9.34028 9.17414 9.63889 9.17414 10C9.17414 10.3611 9.30542 10.6597 9.56798 10.8958C9.83054 11.1319 10.1626 11.25 10.5642 11.25H12.4175V12.9167C12.4175 13.2778 12.5488 13.5764 12.8114 13.8125C13.0739 14.0486 13.406 14.1667 13.8075 14.1667Z" fill="#FF0000"/>
</svg>
